<svg xmlns="http://www.w3.org/2000/svg" viewBox="0 0 512 512">
  <defs>
    <radialGradient id="space" cx="50%" cy="38%" r="72%">
      <stop offset="0%" stop-color="#10203a"/>
      <stop offset="58%" stop-color="#070b1b"/>
      <stop offset="100%" stop-color="#050712"/>
    </radialGradient>
    <linearGradient id="edge" x1="0" x2="1" y1="0" y2="1">
      <stop offset="0%" stop-color="#00e5ff"/>
      <stop offset="48%" stop-color="#ff4fd8"/>
      <stop offset="100%" stop-color="#ffdc4a"/>
    </linearGradient>
  </defs>
  <rect width="512" height="512" rx="96" fill="url(#space)"/>
  <path d="M86 392 C140 344 190 322 256 322 C322 322 372 344 426 392" fill="none" stroke="#ff4a6d" stroke-width="18" opacity="0.88"/>
  <path d="M98 354 C146 316 196 298 256 298 C316 298 366 316 414 354" fill="none" stroke="#ff9a3c" stroke-width="8" opacity="0.7"/>
  <circle cx="250" cy="248" r="112" fill="none" stroke="#00e5ff" stroke-width="7" opacity="0.85"/>
  <circle cx="250" cy="248" r="74" fill="#111c36" stroke="url(#edge)" stroke-width="10"/>
  <circle cx="226" cy="226" r="16" fill="#ffffff" opacity="0.5"/>
  <circle cx="344" cy="151" r="48" fill="#172c4d" stroke="#ffdc4a" stroke-width="8"/>
  <circle cx="150" cy="174" r="28" fill="#1b2345" stroke="#ff4fd8" stroke-width="6"/>
  <path d="M257 113 L288 171 L255 154 L224 172 Z" fill="#f4fbff" stroke="#00e5ff" stroke-width="7" stroke-linejoin="round"/>
  <path d="M242 165 C232 192 220 219 196 245" fill="none" stroke="#ff4fd8" stroke-width="8" stroke-linecap="round" opacity="0.9"/>
  <circle cx="102" cy="104" r="5" fill="#9af7ff"/>
  <circle cx="400" cy="102" r="4" fill="#ffffff"/>
  <circle cx="431" cy="259" r="5" fill="#ffdc4a"/>
  <circle cx="93" cy="276" r="4" fill="#ff4fd8"/>
</svg>
